<svg version="1.1" xmlns="http://www.w3.org/2000/svg" xmlns:xlink="http://www.w3.org/1999/xlink" x="0px" y="0px" viewBox="0 0 300 300" style="enable-background:new 0 0 300 300;" xml:space="preserve" height="100%" width="80%"><g id="alicia"><polygon id="face-1" points="235.8,113.5 235.8,108.6 235.8,103.7 235.8,98.8 230.9,98.8 230.9,93.9 
				226,93.9 226,89 226,84.1 226,79.2 221.1,79.2 221.1,74.3 216.2,74.3 216.2,69.4 211.3,69.4 206.4,69.4 206.4,64.5 201.5,64.5 
				196.6,64.5 191.7,64.5 191.7,59.6 186.8,59.6 181.9,59.6 177,59.6 177,54.7 172.1,54.7 167.2,54.7 162.3,54.7 157.3,54.7 
				152.5,54.7 147.5,54.7 142.7,54.7 142.7,59.6 137.8,59.6 132.8,59.6 127.9,59.6 123,59.6 118.1,59.6 118.1,64.5 113.2,64.5 
				108.3,64.5 108.3,69.4 103.4,69.4 103.4,74.3 98.5,74.3 98.5,79.2 93.6,79.2 93.6,84.1 88.7,84.1 88.7,89 83.8,89 83.8,93.9 
				78.9,93.9 78.9,98.8 78.9,103.7 78.9,108.6 78.9,113.5 78.9,118.4 74,118.4 74,123.3 74,128.2 74,133.1 74,138 74,142.9 
				74,147.8 74,152.8 69.1,152.8 64.2,152.8 59.3,152.8 59.3,157.6 59.3,162.5 59.3,167.5 59.3,172.3 59.3,177.3 59.3,182.2 
				64.2,182.2 69.1,182.2 74,182.2 78.9,182.2 83.8,182.2 83.8,187.1 83.8,192 88.7,192 93.6,192 93.6,196.9 98.5,196.9 98.5,201.8 
				103.4,201.8 108.3,201.8 108.3,206.7 113.2,206.7 118.1,206.7 123,206.7 127.9,206.7 132.8,206.7 137.8,206.7 137.8,211.6 
				137.8,216.5 142.7,216.5 147.5,216.5 152.5,216.5 157.3,216.5 162.3,216.5 162.3,211.6 162.3,206.7 167.2,206.7 172.1,206.7 
				177,206.7 181.9,206.7 186.8,206.7 191.7,206.7 196.6,206.7 201.5,206.7 206.4,206.7 206.4,201.8 211.3,201.8 211.3,196.9 
				216.2,196.9 216.2,192 221.1,192 221.1,187.1 226,187.1 226,182.2 230.9,182.2 230.9,177.3 235.8,177.3 235.8,172.3 235.8,167.5 
				240.7,167.5 240.7,162.5 240.7,157.6 240.7,152.8 240.7,147.8 240.7,142.9 240.7,138 240.7,133.1 240.7,128.2 240.7,123.3 
				240.7,118.4 240.7,113.5 			" class="skin" xmlns="http://www.w3.org/2000/svg"><title>#face-1.face.skin</title></polygon><polygon id="hairstyle-4" points="265.2,152.8 265.2,147.8 260.3,147.8 260.3,142.9 255.4,142.9 250.5,142.9 
				250.5,138 250.5,133.1 250.5,128.2 250.5,123.3 250.5,118.4 250.5,113.5 245.6,113.5 245.6,108.6 245.6,103.7 245.6,98.8 
				240.7,98.8 240.7,93.9 240.7,89 240.7,84.1 235.8,84.1 235.8,79.2 230.9,79.2 230.9,74.3 226,74.3 221.1,74.3 221.1,69.4 
				216.2,69.4 211.3,69.4 211.3,64.5 206.4,64.5 201.5,64.5 201.5,59.6 196.6,59.6 191.7,59.6 186.8,59.6 186.8,54.7 181.9,54.7 
				177,54.7 172.1,54.7 172.1,49.8 167.2,49.8 162.3,49.8 157.3,49.8 152.5,49.8 147.5,49.8 142.7,49.8 137.8,49.8 132.8,49.8 
				127.9,49.8 127.9,54.7 123,54.7 118.1,54.7 113.2,54.7 113.2,59.6 108.3,59.6 108.3,64.5 103.4,64.5 98.5,64.5 93.6,64.5 
				93.6,69.4 88.7,69.4 83.8,69.4 83.8,74.3 78.9,74.3 78.9,79.2 74,79.2 74,84.1 74,89 74,93.9 69.1,93.9 69.1,98.8 69.1,103.7 
				69.1,108.6 64.2,108.6 64.2,113.5 64.2,118.4 64.2,123.3 64.2,128.2 64.2,133.1 64.2,138 64.2,142.9 59.3,142.9 54.4,142.9 
				49.5,142.9 49.5,147.8 44.6,147.8 39.7,147.8 39.7,152.8 34.8,152.8 34.8,157.6 34.8,162.5 34.8,167.5 39.7,167.5 39.7,172.3 
				44.6,172.3 44.6,177.3 49.5,177.3 54.4,177.3 54.4,182.2 54.4,187.1 54.4,192 54.4,196.9 59.3,196.9 59.3,201.8 64.2,201.8 
				69.1,201.8 74,201.8 74,196.9 78.9,196.9 78.9,192 83.8,192 83.8,187.1 83.8,182.2 78.9,182.2 74,182.2 69.1,182.2 64.2,182.2 
				59.3,182.2 59.3,177.3 59.3,172.3 59.3,167.5 59.3,162.5 59.3,157.6 59.3,152.8 64.2,152.8 69.1,152.8 74,152.8 78.9,152.8 
				83.8,152.8 88.7,152.8 88.7,147.8 88.7,142.9 88.7,138 88.7,133.1 88.7,128.2 88.7,123.3 88.7,118.4 88.7,113.5 88.7,108.6 
				93.6,108.6 93.6,103.7 98.5,103.7 103.4,103.7 108.3,103.7 108.3,98.8 113.2,98.8 118.1,98.8 123,98.8 127.9,98.8 127.9,93.9 
				132.8,93.9 137.8,93.9 142.7,93.9 147.5,93.9 152.5,93.9 157.3,93.9 162.3,93.9 167.2,93.9 172.1,93.9 177,93.9 181.9,93.9 
				181.9,98.8 186.8,98.8 191.7,98.8 196.6,98.8 201.5,98.8 206.4,98.8 211.3,98.8 216.2,98.8 221.1,98.8 226,98.8 226,103.7 
				230.9,103.7 230.9,108.6 230.9,113.5 230.9,118.4 230.9,123.3 230.9,128.2 230.9,133.1 230.9,138 230.9,142.9 230.9,147.8 
				230.9,152.8 235.8,152.8 235.8,157.6 235.8,162.5 235.8,167.5 235.8,172.3 235.8,177.3 230.9,177.3 226,177.3 226,182.2 
				226,187.1 221.1,187.1 221.1,192 226,192 226,196.9 230.9,196.9 230.9,201.8 235.8,201.8 240.7,201.8 245.6,201.8 245.6,196.9 
				250.5,196.9 250.5,192 250.5,187.1 250.5,182.2 250.5,177.3 255.4,177.3 260.3,177.3 260.3,172.3 265.2,172.3 265.2,167.5 
				270.1,167.5 270.1,162.5 270.1,157.6 270.1,152.8 			" class="hairstyle hair" xmlns="http://www.w3.org/2000/svg"><title>#hairstyle-4.hairstyle.hair</title></polygon><g id="eyebrows-2" class="eyebrows hair" xmlns="http://www.w3.org/2000/svg">
				<g id="right-eyebrow-2" class="eyebrows hair">
					<polygon points="211.3,108.6 206.4,108.6 201.5,108.6 196.6,108.6 191.7,108.6 
						186.8,108.6 186.8,113.5 191.7,113.5 196.6,113.5 201.5,113.5 206.4,113.5 211.3,113.5 216.2,113.5 216.2,108.6 					"/>
					<rect x="181.9" y="113.5" width="4.9" height="4.9"/>
				<title>#right-eyebrow-2.eyebrows.hair</title></g>
				<g id="left-eyebrow-2" class="eyebrows hair">
					<polygon points="152.5,108.6 147.5,108.6 142.7,108.6 137.8,108.6 132.8,108.6 
						127.9,108.6 127.9,113.5 132.8,113.5 137.8,113.5 142.7,113.5 147.5,113.5 152.5,113.5 157.3,113.5 157.3,108.6 					"/>
					<rect x="123" y="113.5" width="4.9" height="4.9"/>
				<title>#left-eyebrow-2.eyebrows.hair</title></g>
			<title>#eyebrows-2.eyebrows.hair</title></g><g id="eyes-5" class="eyes" xmlns="http://www.w3.org/2000/svg">
				<polygon id="right-eye-5" points="213.2,139 208.3,139 208.3,143.9 203.4,143.9 198.5,143.9 193.6,143.9 
					188.7,143.9 183.8,143.9 183.8,148.8 188.7,148.8 193.6,148.8 198.5,148.8 203.4,148.8 208.3,148.8 213.2,148.8 213.2,143.9 
					218.1,143.9 218.1,139 				" class="eyes"><title>#right-eye-5.eyes</title></polygon>
				<polygon id="left-eye-5" points="157.3,138 152.5,138 152.5,142.9 147.5,142.9 142.7,142.9 137.8,142.9 
					132.8,142.9 127.9,142.9 127.9,147.8 132.8,147.8 137.8,147.8 142.7,147.8 147.5,147.8 152.5,147.8 157.3,147.8 157.3,142.9 
					162.3,142.9 162.3,138 				" class="eyes"><title>#left-eye-5.eyes</title></polygon>
			<title>#eyes-5.eyes</title></g><polygon id="mouth-2" points="186.8,182.2 181.9,182.2 177,182.2 172.1,182.2 167.2,182.2 167.2,177.3 
				162.3,177.3 157.3,177.3 152.5,177.3 152.5,182.2 157.3,182.2 157.3,187.1 162.3,187.1 167.2,187.1 172.1,187.1 177,187.1 
				181.9,187.1 186.8,187.1 191.7,187.1 191.7,182.2 			" class="mouth" xmlns="http://www.w3.org/2000/svg"><title>#mouth-2.mouth</title></polygon><g id="character"><polygon id="torso-1" points="177.9,220.9 177.9,217.6 174.7,217.6 174.7,214.3 171.4,214.3 168.1,214.3 
				164.8,214.3 161.5,214.3 158.2,214.3 154.9,214.3 151.6,214.3 148.3,214.3 145,214.3 141.8,214.3 138.5,214.3 135.2,214.3 
				131.9,214.3 128.6,214.3 125.3,214.3 122,214.3 118.7,214.3 118.7,217.6 115.4,217.6 115.4,220.9 115.4,224.2 115.4,227.5 
				115.4,230.8 115.4,234.1 115.4,237.4 115.4,240.7 115.4,244 115.4,247.2 115.4,250.5 118.7,250.5 122,250.5 125.3,250.5 
				128.6,250.5 131.9,250.5 135.2,250.5 138.5,250.5 141.8,250.5 145,250.5 148.3,250.5 151.6,250.5 154.9,250.5 158.2,250.5 
				161.5,250.5 164.8,250.5 168.1,250.5 171.4,250.5 174.7,250.5 177.9,250.5 181.2,250.5 181.2,247.2 181.2,244 181.2,240.7 
				181.2,237.4 181.2,234.1 181.2,230.8 181.2,227.5 181.2,224.2 181.2,220.9 			" class="torso skin" xmlns="http://www.w3.org/2000/svg"><title>#torso-1.torso.skin</title></polygon><g id="arms-1" class="skin" xmlns="http://www.w3.org/2000/svg">
				<polygon id="right-arm-1" points="184.5,227.5 184.5,224.2 181.2,224.2 181.2,220.9 177.9,220.9 
					177.9,224.2 177.9,227.5 177.9,230.8 177.9,234.1 177.9,237.4 177.9,240.7 177.9,244 177.9,247.2 177.9,250.5 177.9,253.8 
					177.9,257.1 177.9,260.4 181.2,260.4 184.5,260.4 184.5,257.1 187.8,257.1 187.8,253.8 187.8,250.5 187.8,247.2 187.8,244 
					187.8,240.7 187.8,237.4 187.8,234.1 187.8,230.8 187.8,227.5 				" class="arms skin"><title>#right-arm-1.arms.skin</title></polygon>
				<polygon id="left-arm-1" points="115.4,217.6 115.4,220.9 112.2,220.9 108.9,220.9 108.9,224.2 105.6,224.2 
					105.6,227.5 105.6,230.8 105.6,234.1 105.6,237.4 105.6,240.7 105.6,244 105.6,247.2 105.6,250.5 105.6,253.8 105.6,257.1 
					108.9,257.1 108.9,260.4 108.9,263.7 112.2,263.7 115.4,263.7 118.7,263.7 118.7,260.4 118.7,257.1 118.7,253.8 118.7,250.5 
					118.7,247.2 118.7,244 118.7,240.7 118.7,237.4 118.7,234.1 118.7,230.8 118.7,227.5 118.7,224.2 118.7,220.9 118.7,217.6 				
					" class="arms skin"><title>#left-arm-1.arms.skin</title></polygon>
			<title>#arms-1.arms.skin</title></g><g id="top-1" class="top" xmlns="http://www.w3.org/2000/svg">
				<polygon id="right-sleeve-1" points="184.5,227.5 184.5,224.2 181.2,224.2 181.2,220.9 177.9,220.9 
					177.9,224.2 177.9,227.5 177.9,230.8 177.9,234.1 177.9,237.4 177.9,240.7 177.9,244 181.2,244 184.5,244 187.8,244 
					187.8,240.7 187.8,237.4 187.8,234.1 187.8,230.8 187.8,227.5 				" class="sleeves"><title>#right-sleeve-1.sleeves.top</title></polygon>
				<polygon id="left-sleeve-1" points="115.4,217.6 115.4,220.9 112.2,220.9 108.9,220.9 108.9,224.2 
					105.6,224.2 105.6,227.5 105.6,230.8 105.6,234.1 105.6,237.4 105.6,240.7 105.6,244 108.9,244 112.2,244 115.4,244 118.7,244 
					118.7,240.7 118.7,237.4 118.7,234.1 118.7,230.8 118.7,227.5 118.7,224.2 118.7,220.9 118.7,217.6 				" class="sleeves"><title>#left-sleeve-1.sleeves.top</title></polygon>
				<polygon id="top-body-1" points="177.9,220.9 177.9,217.6 174.7,217.6 174.7,214.3 171.4,214.3 168.1,214.3 
					164.8,214.3 161.5,214.3 158.2,214.3 154.9,214.3 151.6,214.3 148.3,214.3 145,214.3 141.8,214.3 138.5,214.3 135.2,214.3 
					131.9,214.3 128.6,214.3 125.3,214.3 122,214.3 118.7,214.3 118.7,217.6 115.4,217.6 115.4,220.9 115.4,224.2 115.4,227.5 
					115.4,230.8 115.4,234.1 115.4,237.4 115.4,240.7 115.4,244 115.4,247.2 115.4,250.5 118.7,250.5 122,250.5 125.3,250.5 
					128.6,250.5 131.9,250.5 135.2,250.5 138.5,250.5 141.8,250.5 145,250.5 148.3,250.5 151.6,250.5 154.9,250.5 158.2,250.5 
					161.5,250.5 164.8,250.5 168.1,250.5 171.4,250.5 174.7,250.5 177.9,250.5 181.2,250.5 181.2,247.2 181.2,244 181.2,240.7 
					181.2,237.4 181.2,234.1 181.2,230.8 181.2,227.5 181.2,224.2 181.2,220.9 				" class=""><title>#top-body-1.top</title></polygon>
			<title>#top-1.top</title></g><g id="topdesign-1" class="topdesign" xmlns="http://www.w3.org/2000/svg">
				<polygon points="168.6,223.2 168.6,225.6 168.6,228.1 168.6,230.6 171.1,230.6 171.1,228.1 171.1,225.6 
					171.1,223.2 				"/>
				<polygon points="166.2,233.1 163.7,233.1 161.2,233.1 161.2,235.5 163.7,235.5 166.2,235.5 166.2,238 
					166.2,240.5 168.6,240.5 168.6,238 168.6,235.5 168.6,233.1 168.6,230.6 166.2,230.6 				"/>
				<polygon style="fill:#ED1C24;" points="168.6,225.6 168.6,223.2 166.2,223.2 163.7,223.2 163.7,225.6 
					166.2,225.6 166.2,228.1 166.2,230.6 168.6,230.6 168.6,228.1 				"/>
				<rect x="163.7" y="240.5" width="2.5" height="2.5"/>
				<path style="fill:#FFFFFF;" d="M166.2,235.5h-2.5h-2.5v-2.5h-2.5v-2.5h-2.5v-2.5h-2.5v2.5h-2.5h-2.5v-2.5h-2.5
					v-2.5v-2.5h-2.5v-2.5h-2.5h-2.5h-2.5H134v2.5v2.5h-2.5v2.5v2.5h2.5v2.5h-2.5v2.5h2.5v2.5h-2.5v2.5h2.5v2.5h2.5h2.5v2.5h2.5h2.5
					h2.5h2.5h2.5h2.5h2.5h2.5V243h2.5h2.5v-2.5h2.5V238V235.5z M156.3,233.1v2.5v2.5h-2.5v-2.5v-2.5H156.3z M143.9,238h-2.5v-2.5
					v-2.5h2.5v2.5V238z M146.4,238h2.5h2.5v2.5h-2.5h-2.5V238z"/>
				<polygon style="fill:#ED1C24;" points="163.7,228.1 161.2,228.1 161.2,230.6 161.2,233.1 163.7,233.1 
					166.2,233.1 166.2,230.6 163.7,230.6 				"/>
				<polygon points="161.2,225.6 161.2,228.1 163.7,228.1 163.7,230.6 166.2,230.6 166.2,228.1 166.2,225.6 
					163.7,225.6 163.7,223.2 161.2,223.2 				"/>
				<polygon points="163.7,220.7 166.2,220.7 166.2,223.2 168.6,223.2 168.6,220.7 168.6,218.2 166.2,218.2 
					163.7,218.2 161.2,218.2 158.7,218.2 158.7,220.7 161.2,220.7 				"/>
				<polygon points="158.7,243 158.7,245.4 161.2,245.4 163.7,245.4 163.7,243 161.2,243 				"/>
				<polygon points="161.2,228.1 158.7,228.1 156.3,228.1 156.3,230.6 158.7,230.6 158.7,233.1 161.2,233.1 
					161.2,230.6 				"/>
				<polygon style="fill:#ED1C24;" points="161.2,228.1 161.2,225.6 161.2,223.2 158.7,223.2 156.3,223.2 
					156.3,225.6 156.3,228.1 158.7,228.1 				"/>
				<polygon style="fill:#FFFFFF;" points="161.2,223.2 163.7,223.2 166.2,223.2 166.2,220.7 163.7,220.7 
					161.2,220.7 158.7,220.7 158.7,223.2 				"/>
				<rect x="156.3" y="220.7" width="2.5" height="2.5"/>
				<polygon points="153.8,245.4 151.3,245.4 148.8,245.4 146.4,245.4 143.9,245.4 141.4,245.4 138.9,245.4 
					138.9,247.9 141.4,247.9 143.9,247.9 146.4,247.9 148.8,247.9 151.3,247.9 153.8,247.9 156.3,247.9 158.7,247.9 158.7,245.4 
					156.3,245.4 				"/>
				<polygon points="153.8,238 156.3,238 156.3,235.5 156.3,233.1 153.8,233.1 153.8,235.5 				"/>
				<polygon points="156.3,223.2 153.8,223.2 151.3,223.2 151.3,225.6 153.8,225.6 153.8,228.1 156.3,228.1 
					156.3,225.6 				"/>
				<polygon points="153.8,220.7 156.3,220.7 156.3,218.2 153.8,218.2 151.3,218.2 151.3,220.7 				"/>
				<polygon points="151.3,240.5 151.3,238 148.8,238 146.4,238 146.4,240.5 148.8,240.5 				"/>
				<polygon points="148.8,228.1 148.8,230.6 151.3,230.6 153.8,230.6 153.8,228.1 151.3,228.1 				"/>
				<polygon style="fill:#ED1C24;" points="148.8,225.6 148.8,228.1 151.3,228.1 153.8,228.1 153.8,225.6 
					151.3,225.6 151.3,223.2 153.8,223.2 156.3,223.2 156.3,220.7 153.8,220.7 151.3,220.7 148.8,220.7 148.8,223.2 				"/>
				<rect x="148.8" y="218.2" width="2.5" height="2.5"/>
				<rect x="146.4" y="225.6" width="2.5" height="2.5"/>
				<polygon points="146.4,223.2 146.4,225.6 148.8,225.6 148.8,223.2 148.8,220.7 146.4,220.7 143.9,220.7 
					143.9,223.2 				"/>
				<polygon points="141.4,233.1 141.4,235.5 141.4,238 143.9,238 143.9,235.5 143.9,233.1 				"/>
				<rect x="136.5" y="243" width="2.5" height="2.5"/>
				<polygon points="138.9,220.7 141.4,220.7 143.9,220.7 143.9,218.2 141.4,218.2 138.9,218.2 136.5,218.2 
					134,218.2 134,220.7 136.5,220.7 				"/>
				<rect x="134" y="243" width="2.5" height="2.5"/>
				<rect x="131.5" y="240.5" width="2.5" height="2.5"/>
				<polygon points="134,238 134,235.5 131.5,235.5 131.5,233.1 134,233.1 134,230.6 131.5,230.6 131.5,228.1 
					131.5,225.6 129,225.6 129,228.1 129,230.6 129,233.1 129,235.5 129,238 129,240.5 131.5,240.5 131.5,238 				"/>
				<polygon points="134,223.2 134,220.7 131.5,220.7 131.5,223.2 131.5,225.6 134,225.6 				"/>
			<title>#topdesign-1.topdesign</title></g></g><g id="legs-1" class="legs skin" xmlns="http://www.w3.org/2000/svg">
				<polygon id="right-leg-1" points="177.9,250.5 174.7,250.5 171.4,250.5 168.1,250.5 164.8,250.5 
					161.5,250.5 158.2,250.5 154.9,250.5 151.6,250.5 151.6,253.8 151.6,257.1 151.6,260.4 154.9,260.4 158.2,260.4 158.2,263.7 
					158.2,267 158.2,270.3 158.2,273.5 158.2,276.8 161.5,276.8 164.8,276.8 168.1,276.8 171.4,276.8 174.7,276.8 177.9,276.8 
					181.2,276.8 181.2,273.5 181.2,270.3 181.2,267 181.2,263.7 181.2,260.4 181.2,257.1 181.2,253.8 181.2,250.5 				" class="legs skin"><title>#right-leg-1.legs.skin</title></polygon>
				<polygon id="left-leg-1" points="148.3,250.5 145,250.5 141.8,250.5 138.5,250.5 135.2,250.5 131.9,250.5 
					128.6,250.5 125.3,250.5 122,250.5 118.7,250.5 115.4,250.5 115.4,253.8 115.4,257.1 115.4,260.4 115.4,263.7 115.4,267 
					115.4,270.3 115.4,273.5 115.4,276.8 118.7,276.8 122,276.8 125.3,276.8 128.6,276.8 131.9,276.8 135.2,276.8 138.5,276.8 
					138.5,273.5 138.5,270.3 138.5,267 138.5,263.7 138.5,260.4 141.8,260.4 145,260.4 148.3,260.4 151.6,260.4 151.6,257.1 
					151.6,253.8 151.6,250.5 				" class="legs skin"><title>#left-leg-1.legs.skin</title></polygon>
			<title>#legs-1.legs.skin</title></g><g id="bottoms-1" class="bottoms" xmlns="http://www.w3.org/2000/svg">
				<polygon id="right-bottom-1" points="177.9,250.5 174.7,250.5 171.4,250.5 168.1,250.5 164.8,250.5 
					161.5,250.5 158.2,250.5 154.9,250.5 151.6,250.5 151.6,253.8 151.6,257.1 151.6,260.4 154.9,260.4 158.2,260.4 158.2,263.7 
					158.2,267 158.2,270.3 158.2,273.5 158.2,276.8 161.5,276.8 164.8,276.8 168.1,276.8 171.4,276.8 174.7,276.8 177.9,276.8 
					181.2,276.8 181.2,273.5 181.2,270.3 181.2,267 181.2,263.7 181.2,260.4 181.2,257.1 181.2,253.8 181.2,250.5 				" class="bottoms"><title>#right-bottom-1.bottoms</title></polygon>
				<polygon id="left-bottom-1" points="148.3,250.5 145,250.5 141.8,250.5 138.5,250.5 135.2,250.5 
					131.9,250.5 128.6,250.5 125.3,250.5 122,250.5 118.7,250.5 115.4,250.5 115.4,253.8 115.4,257.1 115.4,260.4 115.4,263.7 
					115.4,267 115.4,270.3 115.4,273.5 115.4,276.8 118.7,276.8 122,276.8 125.3,276.8 128.6,276.8 131.9,276.8 135.2,276.8 
					138.5,276.8 138.5,273.5 138.5,270.3 138.5,267 138.5,263.7 138.5,260.4 141.8,260.4 145,260.4 148.3,260.4 151.6,260.4 
					151.6,257.1 151.6,253.8 151.6,250.5 				" class="bottoms"><title>#left-bottom-1.bottoms</title></polygon>
			<title>#bottoms-1.bottoms</title></g><g id="feet-1" class="feet skin" xmlns="http://www.w3.org/2000/svg">
				<polygon id="right-foot-1" points="187.8,276.8 184.5,276.8 181.2,276.8 177.9,276.8 174.7,276.8 
					171.4,276.8 168.1,276.8 164.8,276.8 161.5,276.8 158.2,276.8 158.2,280.1 158.2,283.4 158.2,286.7 158.2,290 161.5,290 
					164.8,290 168.1,290 171.4,290 174.7,290 177.9,290 181.2,290 184.5,290 187.8,290 191.1,290 191.1,286.7 191.1,283.4 
					191.1,280.1 191.1,276.8 				" class="feet skin"><title>#right-foot-1.feet.skin</title></polygon>
				<polygon id="left-foot-1" points="145,276.8 141.8,276.8 138.5,276.8 135.2,276.8 131.9,276.8 128.6,276.8 
					125.3,276.8 122,276.8 118.7,276.8 115.4,276.8 115.4,280.1 115.4,283.4 115.4,286.7 115.4,290 118.7,290 122,290 125.3,290 
					128.6,290 131.9,290 135.2,290 138.5,290 141.8,290 145,290 148.3,290 148.3,286.7 148.3,283.4 148.3,280.1 148.3,276.8 				" class="feet skin"><title>#left-foot-1.feet.skin</title></polygon>
			<title>#feet-1.feet.skin</title></g><g id="shoes-1" class="shoes" xmlns="http://www.w3.org/2000/svg">
				<g id="right-shoe-1" class="shoes">
					<polygon id="right-shoe-sole-1" points="187.8,286.7 184.5,286.7 181.2,286.7 177.9,286.7 174.7,286.7 
						171.4,286.7 168.1,286.7 164.8,286.7 161.5,286.7 158.2,286.7 158.2,290 161.5,290 164.8,290 168.1,290 171.4,290 174.7,290 
						177.9,290 181.2,290 184.5,290 187.8,290 191.1,290 191.1,286.7 					" class="shoes shoe-soles"><title>#right-shoe-sole-1.shoes.shoe-soles</title></polygon>
					<polygon id="right-shoe-base-1" points="187.8,276.8 184.5,276.8 181.2,276.8 177.9,276.8 174.7,276.8 
						171.4,276.8 168.1,276.8 164.8,276.8 161.5,276.8 158.2,276.8 158.2,280.1 158.2,283.4 158.2,286.7 161.5,286.7 164.8,286.7 
						168.1,286.7 171.4,286.7 174.7,286.7 177.9,286.7 181.2,286.7 184.5,286.7 187.8,286.7 191.1,286.7 191.1,283.4 191.1,280.1 
						191.1,276.8 					" class="shoes shoe-bases"><title>#right-shoe-base-1.shoes.shoe-bases</title></polygon>
					<g id="right-shoe-laces-1" class="shoes shoe-laces">
						<polygon points="181.2,276.8 181.2,280.1 181.2,283.4 184.5,283.4 184.5,280.1 
							184.5,276.8 						"/>
						<polygon points="174.7,280.1 174.7,283.4 177.9,283.4 177.9,280.1 177.9,276.8 
							174.7,276.8 						"/>
					<title>#right-shoe-laces-1.shoes.shoe-laces</title></g>
				<title>#right-shoe-1.shoes</title></g>
				<g id="left-shoe-1" class="shoes">
					<polygon id="left-shoe-sole-1" points="145,286.7 141.8,286.7 138.5,286.7 135.2,286.7 131.9,286.7 
						128.6,286.7 125.3,286.7 122,286.7 118.7,286.7 115.4,286.7 115.4,290 118.7,290 122,290 125.3,290 128.6,290 131.9,290 
						135.2,290 138.5,290 141.8,290 145,290 148.3,290 148.3,286.7 					" class="shoes shoe-soles"><title>#left-shoe-sole-1.shoes.shoe-soles</title></polygon>
					<polygon id="left-shoe-base-1" points="145,276.8 141.8,276.8 138.5,276.8 135.2,276.8 131.9,276.8 
						128.6,276.8 125.3,276.8 122,276.8 118.7,276.8 115.4,276.8 115.4,280.1 115.4,283.4 115.4,286.7 118.7,286.7 122,286.7 
						125.3,286.7 128.6,286.7 131.9,286.7 135.2,286.7 138.5,286.7 141.8,286.7 145,286.7 148.3,286.7 148.3,283.4 148.3,280.1 
						148.3,276.8 					" class="shoes shoe-bases"><title>#left-shoe-base-1.shoes.shoe-bases</title></polygon>
					<g id="left-shoe-laces-1" class="shoes shoe-laces">
						<polygon points="138.5,276.8 138.5,280.1 138.5,283.4 141.8,283.4 141.8,280.1 141.8,276.8 
													"/>
						<polygon points="131.9,280.1 131.9,283.4 135.2,283.4 135.2,280.1 135.2,276.8 131.9,276.8 
													"/>
					<title>#left-shoe-laces-1.shoes.shoe-laces</title></g>
				<title>#left-shoe-1.shoes</title></g>
			<title>#shoes-1.shoes</title></g></g><style>
    * {
      stroke: black;
      stroke-width: 1px;
    }
    .shade{
        fill:rgba(0,0,0,0.2);
    }.skin {
  fill: #FFDCB2;
}

.hairstyle {
  fill: rgba(110, 50, 10, 1);
}

.eyebrows {
  fill: rgba(110, 50, 10, 1);
}

.top {
  fill: purple;
}

.bottoms {
  fill: rgba(10, 10, 50, 1);
}

.shoes {
  fill: grey;
}

.background {
  background-color: black;
  background-image: radial-gradient(white, rgba(255,255,255,.2) 2px, transparent 40px),
    radial-gradient(white, rgba(255,255,255,.15) 1px, transparent 30px),
    radial-gradient(white, rgba(255,255,255,.1) 2px, transparent 40px),
    radial-gradient(rgba(255,255,255,.4), rgba(255,255,255,.1) 2px, transparent 30px);
  background-size: 550px 550px, 350px 350px, 250px 250px, 150px 150px;
  background-position: 0 0, 40px 60px, 130px 270px, 70px 100px;
}</style><style>
.mouth {
  animation: talk-mouth 1s 1;
  transform-origin: center center;
}
@keyframes talk-mouth {
    0% {
        transform: scaleY(1);
    }
    25% {
        transform: scale(1.2);
    }
    50% {
        transform: scaleY(0.4);
    }
    100% {
        transform: scaleY(1);
    }
} 
.eyebrows {
  animation: jump-eyebrows 1s 0.5s 1;
  animation-timing-function: ease-in-out;
  transform-origin: center center;
}
@keyframes jump-eyebrows {
  0% {
    -webkit-transform: translateY(0);
    transform: translateY(0);
  }
  20% {
    -webkit-transform: rotate(0deg) translateY(-5px);
    transform: rotate(0deg) translateY(-5px);
  }
  33% {
    -webkit-transform: rotate(-10deg) translateY(-5px);
    transform: rotate(-10deg) translateY(-5px);
  }
  66% {
    -webkit-transform: rotate(10deg) translateY(-5px);
    transform: rotate(10deg) translateY(-5px);
  }
  90% {
    -webkit-transform: rotate(0deg) translateY(-5px);
    transform: rotate(0deg) translateY(-5px);
  }
  100% {
    -webkit-transform: translateY(0);
    transform: translateY(0);
  }
} 
.top {
  animation: raise-top 1s 1;
  transform-origin: center center;
}
@keyframes raise-top {
  0% {
      transform: translateY(0);
  }
  50% {
      transform: translateY(-5px);
  }
  100% {
      transform: translateY(0);
  }
}</style></svg>